<?xml version="1.0" encoding="utf-8"?>
<!-- Designed by Vexels.com - 2016 All Rights Reserved - https://vexels.com/terms-and-conditions/  -->

<svg version="1.0" id="Capa_1" xmlns="http://www.w3.org/2000/svg" xmlns:xlink="http://www.w3.org/1999/xlink" x="0px" y="0px"
	 width="1200px" height="1200px" viewBox="0 0 1200 1200" enable-background="new 0 0 1200 1200" xml:space="preserve">
<g>
	<path fill="#2AA7DF" d="M995.309,1021.432H119.119c-4.512-14.28-16.387-59.962,2.107-98.186
		c11.535-23.852,33.075-40.775,64.037-50.394c113.306-35.183,241.77-75.026,241.77-216.401v-4.56l-4.176-1.864
		c-1.124-0.495-115.117-53.245-115.117-246.183c0-173.366,88.324-276.853,236.32-276.853c144.952,0,228.127,109.572,228.325,300.648
		c-1.968,11.189-33.61,187.399-110.407,229.646l-4.222,2.309l0.636,4.71c0.3,2.598,0.494,5.987,0.691,9.959
		c2.208,44.554,7.359,148.876,257.467,186.762C987.652,868.141,994.969,934.482,995.309,1021.432z"/>
	<g>
		<path fill="#010101" d="M997.736,884.679c-238.38-36.163-243.145-132.441-245.204-173.561c-0.097-2.305-0.196-4.417-0.341-6.329
			C834.086,654.54,864.51,474.65,865.787,466.896l0.047-1.126c0-200.353-88.325-315.273-242.307-315.273
			c-76.105,0-139.457,26.791-183.273,77.433c-43.87,50.784-67.032,124.586-67.032,213.455c0,183.57,97.208,245.295,119.238,256.925
			c-2.696,127.582-124.39,165.317-231.901,198.686c-34.79,10.795-59.176,30.226-72.473,57.705
			c-24.732,51.131-2.014,111.292-1.035,113.794l1.721,4.515h900.035v-7.017C1088.807,989.246,1088.807,893.754,997.736,884.679z
			 M198.585,1058.973c-4.515-14.28-16.39-59.962,2.107-98.188c11.534-23.848,33.074-40.775,64.034-50.392
			c113.309-35.183,241.77-75.028,241.77-216.399v-4.564l-4.172-1.863c-1.127-0.493-115.118-53.243-115.118-246.182
			c0-173.365,88.325-276.853,236.321-276.853c144.953,0,228.126,109.572,228.322,300.648c-1.963,11.189-33.61,187.4-110.406,229.646
			l-4.221,2.309l0.638,4.709c0.296,2.598,0.493,5.987,0.688,9.958c2.21,44.558,7.36,148.878,257.469,186.761
			c71.104,7.118,78.416,73.458,78.756,160.408H198.585z"/>
	</g>
</g>
</svg>
